<?xml version="1.0" standalone="no"?>
<!DOCTYPE svg PUBLIC "-//W3C//DTD SVG 20010904//EN"
 "http://www.w3.org/TR/2001/REC-SVG-20010904/DTD/svg10.dtd">
<svg version="1.0" xmlns="http://www.w3.org/2000/svg"
 width="100.000000pt" height="100.000000pt" viewBox="0 0 100.000000 100.000000"
 preserveAspectRatio="xMidYMid meet">
<metadata>
Created by potrace 1.14, written by Peter Selinger 2001-2017
</metadata>
<g transform="translate(0.000000,100.000000) scale(0.100000,-0.100000)"
fill="#000000" stroke="none">
<path d="M152 847 c-22 -23 -22 -28 -22 -348 l0 -326 23 -21 c23 -22 28 -22
348 -22 l326 0 21 23 c22 23 22 28 22 348 l0 326 -23 21 c-23 22 -28 22 -348
22 l-326 0 -21 -23z m638 -347 l0 -290 -290 0 -290 0 0 290 0 290 290 0 290 0
0 -290z"/>
<path d="M568 728 c-23 -28 -22 -31 2 -53 27 -24 25 -39 -6 -64 -15 -12 -22
-21 -15 -21 6 0 11 -6 11 -14 0 -22 37 -26 56 -5 22 24 33 24 59 -1 23 -22 55
-18 55 6 0 8 5 14 12 14 6 0 2 8 -9 18 -33 29 -35 49 -7 71 l26 20 -27 27 -26
26 -18 -21 c-23 -26 -52 -27 -71 -1 -18 25 -21 25 -42 -2z"/>
<path d="M270 650 l0 -30 95 0 95 0 0 30 0 30 -95 0 -95 0 0 -30z"/>
<path d="M330 440 l0 -40 -40 0 c-39 0 -40 -1 -40 -35 0 -34 1 -35 40 -35 l40
0 0 -40 c0 -39 1 -40 35 -40 34 0 35 1 35 40 l0 40 40 0 c39 0 40 1 40 35 0
34 -1 35 -40 35 l-40 0 0 40 c0 39 -1 40 -35 40 -34 0 -35 -1 -35 -40z"/>
<path d="M540 415 l0 -25 105 0 105 0 0 25 0 25 -105 0 -105 0 0 -25z"/>
<path d="M540 315 l0 -25 105 0 105 0 0 25 0 25 -105 0 -105 0 0 -25z"/>
</g>
</svg>
